<mxfile host="app.diagrams.net" modified="2023-06-07T08:36:52.724Z" agent="Mozilla/5.0 (Macintosh; Intel Mac OS X 10_15_7) AppleWebKit/537.36 (KHTML, like Gecko) Chrome/113.0.0.0 Safari/537.36" etag="gBMlkczhCD-dWe_i_U0P" version="21.3.5" type="github">
  <diagram name="Page-1" id="1kDonh3Y4oLgqN0lP68h">
    <mxGraphModel dx="1363" dy="-325" grid="1" gridSize="10" guides="1" tooltips="1" connect="1" arrows="1" fold="1" page="1" pageScale="1" pageWidth="827" pageHeight="1169" math="0" shadow="0">
      <root>
        <mxCell id="0" />
        <mxCell id="1" parent="0" />
        <mxCell id="4_r3y2-F7bUAAvS2S5T6-59" value="" style="group" vertex="1" connectable="0" parent="1">
          <mxGeometry x="209" y="2000" width="831" height="120" as="geometry" />
        </mxCell>
        <mxCell id="4_r3y2-F7bUAAvS2S5T6-38" value="" style="whiteSpace=wrap;html=1;strokeColor=none;strokeWidth=1;fillColor=#f5f5f5;fontSize=14;" vertex="1" parent="4_r3y2-F7bUAAvS2S5T6-59">
          <mxGeometry width="751" height="120" as="geometry" />
        </mxCell>
        <mxCell id="4_r3y2-F7bUAAvS2S5T6-39" value="系统层" style="text;html=1;strokeColor=none;fillColor=none;align=center;verticalAlign=middle;whiteSpace=wrap;rounded=0;" vertex="1" parent="4_r3y2-F7bUAAvS2S5T6-59">
          <mxGeometry x="771" y="45" width="60" height="30" as="geometry" />
        </mxCell>
        <mxCell id="4_r3y2-F7bUAAvS2S5T6-48" value="银河麒麟（arm64/wayland版本）" style="rounded=0;whiteSpace=wrap;html=1;fillColor=#dae8fc;strokeColor=#6c8ebf;" vertex="1" parent="4_r3y2-F7bUAAvS2S5T6-59">
          <mxGeometry x="21" y="30" width="120" height="60" as="geometry" />
        </mxCell>
        <mxCell id="4_r3y2-F7bUAAvS2S5T6-49" value="统信UOS(...版本)" style="rounded=0;whiteSpace=wrap;html=1;fillColor=#dae8fc;strokeColor=#6c8ebf;" vertex="1" parent="4_r3y2-F7bUAAvS2S5T6-59">
          <mxGeometry x="605" y="30" width="120" height="60" as="geometry" />
        </mxCell>
        <mxCell id="4_r3y2-F7bUAAvS2S5T6-50" value="银河麒麟（arm64版本）" style="rounded=0;whiteSpace=wrap;html=1;fillColor=#dae8fc;strokeColor=#6c8ebf;" vertex="1" parent="4_r3y2-F7bUAAvS2S5T6-59">
          <mxGeometry x="171" y="30" width="120" height="60" as="geometry" />
        </mxCell>
        <mxCell id="4_r3y2-F7bUAAvS2S5T6-51" value="银河麒麟（x86版本）" style="rounded=0;whiteSpace=wrap;html=1;fillColor=#dae8fc;strokeColor=#6c8ebf;" vertex="1" parent="4_r3y2-F7bUAAvS2S5T6-59">
          <mxGeometry x="315.5" y="30" width="120" height="60" as="geometry" />
        </mxCell>
        <mxCell id="4_r3y2-F7bUAAvS2S5T6-52" value="银河麒麟（...版本）" style="rounded=0;whiteSpace=wrap;html=1;fillColor=#dae8fc;strokeColor=#6c8ebf;" vertex="1" parent="4_r3y2-F7bUAAvS2S5T6-59">
          <mxGeometry x="460" y="30" width="120" height="60" as="geometry" />
        </mxCell>
        <mxCell id="4_r3y2-F7bUAAvS2S5T6-61" value="" style="group" vertex="1" connectable="0" parent="1">
          <mxGeometry x="209" y="2180" width="832" height="120" as="geometry" />
        </mxCell>
        <mxCell id="4_r3y2-F7bUAAvS2S5T6-46" value="" style="whiteSpace=wrap;html=1;strokeColor=none;strokeWidth=1;fillColor=#f5f5f5;fontSize=14;" vertex="1" parent="4_r3y2-F7bUAAvS2S5T6-61">
          <mxGeometry width="751" height="120" as="geometry" />
        </mxCell>
        <mxCell id="4_r3y2-F7bUAAvS2S5T6-47" value="硬件层" style="text;html=1;strokeColor=none;fillColor=none;align=center;verticalAlign=middle;whiteSpace=wrap;rounded=0;" vertex="1" parent="4_r3y2-F7bUAAvS2S5T6-61">
          <mxGeometry x="772" y="45" width="60" height="30" as="geometry" />
        </mxCell>
        <mxCell id="4_r3y2-F7bUAAvS2S5T6-53" value="华为鲲鹏920芯片" style="rounded=0;whiteSpace=wrap;html=1;fillColor=#e1d5e7;strokeColor=#9673a6;" vertex="1" parent="4_r3y2-F7bUAAvS2S5T6-61">
          <mxGeometry x="22" y="30" width="120" height="60" as="geometry" />
        </mxCell>
        <mxCell id="4_r3y2-F7bUAAvS2S5T6-54" value="飞腾芯片" style="rounded=0;whiteSpace=wrap;html=1;fillColor=#e1d5e7;strokeColor=#9673a6;" vertex="1" parent="4_r3y2-F7bUAAvS2S5T6-61">
          <mxGeometry x="172" y="30" width="120" height="60" as="geometry" />
        </mxCell>
        <mxCell id="4_r3y2-F7bUAAvS2S5T6-55" value="麒麟990芯片" style="rounded=0;whiteSpace=wrap;html=1;fillColor=#e1d5e7;strokeColor=#9673a6;" vertex="1" parent="4_r3y2-F7bUAAvS2S5T6-61">
          <mxGeometry x="319" y="30" width="120" height="60" as="geometry" />
        </mxCell>
        <mxCell id="4_r3y2-F7bUAAvS2S5T6-56" value="..." style="rounded=0;whiteSpace=wrap;html=1;fillColor=#e1d5e7;strokeColor=#9673a6;" vertex="1" parent="4_r3y2-F7bUAAvS2S5T6-61">
          <mxGeometry x="466" y="30" width="120" height="60" as="geometry" />
        </mxCell>
        <mxCell id="4_r3y2-F7bUAAvS2S5T6-57" value="..." style="rounded=0;whiteSpace=wrap;html=1;fillColor=#e1d5e7;strokeColor=#9673a6;" vertex="1" parent="4_r3y2-F7bUAAvS2S5T6-61">
          <mxGeometry x="608.5" y="30" width="120" height="60" as="geometry" />
        </mxCell>
        <mxCell id="4_r3y2-F7bUAAvS2S5T6-62" value="" style="group" vertex="1" connectable="0" parent="1">
          <mxGeometry x="209" y="1820" width="831" height="120" as="geometry" />
        </mxCell>
        <mxCell id="4_r3y2-F7bUAAvS2S5T6-63" value="" style="whiteSpace=wrap;html=1;strokeColor=none;strokeWidth=1;fillColor=#f5f5f5;fontSize=14;" vertex="1" parent="4_r3y2-F7bUAAvS2S5T6-62">
          <mxGeometry width="751" height="120" as="geometry" />
        </mxCell>
        <mxCell id="4_r3y2-F7bUAAvS2S5T6-64" value="兼容层" style="text;html=1;strokeColor=none;fillColor=none;align=center;verticalAlign=middle;whiteSpace=wrap;rounded=0;" vertex="1" parent="4_r3y2-F7bUAAvS2S5T6-62">
          <mxGeometry x="771" y="45" width="60" height="30" as="geometry" />
        </mxCell>
        <mxCell id="4_r3y2-F7bUAAvS2S5T6-65" value="electron" style="rounded=0;whiteSpace=wrap;html=1;fillColor=#fff2cc;strokeColor=#d6b656;" vertex="1" parent="4_r3y2-F7bUAAvS2S5T6-62">
          <mxGeometry x="21" y="30" width="120" height="60" as="geometry" />
        </mxCell>
        <mxCell id="4_r3y2-F7bUAAvS2S5T6-66" value="通用shell脚本程序" style="rounded=0;whiteSpace=wrap;html=1;fillColor=#fff2cc;strokeColor=#d6b656;" vertex="1" parent="4_r3y2-F7bUAAvS2S5T6-62">
          <mxGeometry x="605" y="30" width="120" height="60" as="geometry" />
        </mxCell>
        <mxCell id="4_r3y2-F7bUAAvS2S5T6-67" value="python解释器" style="rounded=0;whiteSpace=wrap;html=1;fillColor=#fff2cc;strokeColor=#d6b656;" vertex="1" parent="4_r3y2-F7bUAAvS2S5T6-62">
          <mxGeometry x="171" y="30" width="120" height="60" as="geometry" />
        </mxCell>
        <mxCell id="4_r3y2-F7bUAAvS2S5T6-68" value="gcc编译可执行程序" style="rounded=0;whiteSpace=wrap;html=1;fillColor=#fff2cc;strokeColor=#d6b656;" vertex="1" parent="4_r3y2-F7bUAAvS2S5T6-62">
          <mxGeometry x="315.5" y="30" width="120" height="60" as="geometry" />
        </mxCell>
        <mxCell id="4_r3y2-F7bUAAvS2S5T6-69" value="go编译器编译程序" style="rounded=0;whiteSpace=wrap;html=1;fillColor=#fff2cc;strokeColor=#d6b656;" vertex="1" parent="4_r3y2-F7bUAAvS2S5T6-62">
          <mxGeometry x="460" y="30" width="120" height="60" as="geometry" />
        </mxCell>
        <mxCell id="4_r3y2-F7bUAAvS2S5T6-70" value="" style="group" vertex="1" connectable="0" parent="1">
          <mxGeometry x="209" y="1650" width="831" height="120" as="geometry" />
        </mxCell>
        <mxCell id="4_r3y2-F7bUAAvS2S5T6-71" value="" style="whiteSpace=wrap;html=1;strokeColor=none;strokeWidth=1;fillColor=#f5f5f5;fontSize=14;" vertex="1" parent="4_r3y2-F7bUAAvS2S5T6-70">
          <mxGeometry width="751" height="120" as="geometry" />
        </mxCell>
        <mxCell id="4_r3y2-F7bUAAvS2S5T6-72" value="代码层" style="text;html=1;strokeColor=none;fillColor=none;align=center;verticalAlign=middle;whiteSpace=wrap;rounded=0;" vertex="1" parent="4_r3y2-F7bUAAvS2S5T6-70">
          <mxGeometry x="771" y="45" width="60" height="30" as="geometry" />
        </mxCell>
        <mxCell id="4_r3y2-F7bUAAvS2S5T6-73" value="js代码" style="rounded=0;whiteSpace=wrap;html=1;fillColor=#d5e8d4;strokeColor=#82b366;" vertex="1" parent="4_r3y2-F7bUAAvS2S5T6-70">
          <mxGeometry x="21" y="30" width="120" height="60" as="geometry" />
        </mxCell>
        <mxCell id="4_r3y2-F7bUAAvS2S5T6-74" value="shell脚本代码" style="rounded=0;whiteSpace=wrap;html=1;fillColor=#d5e8d4;strokeColor=#82b366;" vertex="1" parent="4_r3y2-F7bUAAvS2S5T6-70">
          <mxGeometry x="605" y="30" width="120" height="60" as="geometry" />
        </mxCell>
        <mxCell id="4_r3y2-F7bUAAvS2S5T6-75" value="python代码" style="rounded=0;whiteSpace=wrap;html=1;fillColor=#d5e8d4;strokeColor=#82b366;" vertex="1" parent="4_r3y2-F7bUAAvS2S5T6-70">
          <mxGeometry x="171" y="30" width="120" height="60" as="geometry" />
        </mxCell>
        <mxCell id="4_r3y2-F7bUAAvS2S5T6-76" value="c/c++代码" style="rounded=0;whiteSpace=wrap;html=1;fillColor=#d5e8d4;strokeColor=#82b366;" vertex="1" parent="4_r3y2-F7bUAAvS2S5T6-70">
          <mxGeometry x="315.5" y="30" width="120" height="60" as="geometry" />
        </mxCell>
        <mxCell id="4_r3y2-F7bUAAvS2S5T6-77" value="go语言代码" style="rounded=0;whiteSpace=wrap;html=1;fillColor=#d5e8d4;strokeColor=#82b366;" vertex="1" parent="4_r3y2-F7bUAAvS2S5T6-70">
          <mxGeometry x="460" y="30" width="120" height="60" as="geometry" />
        </mxCell>
        <mxCell id="4_r3y2-F7bUAAvS2S5T6-78" style="edgeStyle=orthogonalEdgeStyle;rounded=0;orthogonalLoop=1;jettySize=auto;html=1;" edge="1" parent="1" source="4_r3y2-F7bUAAvS2S5T6-73" target="4_r3y2-F7bUAAvS2S5T6-65">
          <mxGeometry relative="1" as="geometry" />
        </mxCell>
        <mxCell id="4_r3y2-F7bUAAvS2S5T6-79" style="edgeStyle=orthogonalEdgeStyle;rounded=0;orthogonalLoop=1;jettySize=auto;html=1;" edge="1" parent="1" source="4_r3y2-F7bUAAvS2S5T6-75" target="4_r3y2-F7bUAAvS2S5T6-67">
          <mxGeometry relative="1" as="geometry" />
        </mxCell>
        <mxCell id="4_r3y2-F7bUAAvS2S5T6-80" value="" style="edgeStyle=orthogonalEdgeStyle;rounded=0;orthogonalLoop=1;jettySize=auto;html=1;" edge="1" parent="1" source="4_r3y2-F7bUAAvS2S5T6-76" target="4_r3y2-F7bUAAvS2S5T6-68">
          <mxGeometry relative="1" as="geometry" />
        </mxCell>
        <mxCell id="4_r3y2-F7bUAAvS2S5T6-81" value="" style="edgeStyle=orthogonalEdgeStyle;rounded=0;orthogonalLoop=1;jettySize=auto;html=1;" edge="1" parent="1" source="4_r3y2-F7bUAAvS2S5T6-77" target="4_r3y2-F7bUAAvS2S5T6-69">
          <mxGeometry relative="1" as="geometry" />
        </mxCell>
        <mxCell id="4_r3y2-F7bUAAvS2S5T6-82" value="" style="edgeStyle=orthogonalEdgeStyle;rounded=0;orthogonalLoop=1;jettySize=auto;html=1;" edge="1" parent="1" source="4_r3y2-F7bUAAvS2S5T6-74" target="4_r3y2-F7bUAAvS2S5T6-66">
          <mxGeometry relative="1" as="geometry" />
        </mxCell>
        <mxCell id="4_r3y2-F7bUAAvS2S5T6-84" style="edgeStyle=orthogonalEdgeStyle;rounded=0;orthogonalLoop=1;jettySize=auto;html=1;entryX=0.5;entryY=0;entryDx=0;entryDy=0;" edge="1" parent="1" source="4_r3y2-F7bUAAvS2S5T6-63" target="4_r3y2-F7bUAAvS2S5T6-38">
          <mxGeometry relative="1" as="geometry" />
        </mxCell>
        <mxCell id="4_r3y2-F7bUAAvS2S5T6-85" style="edgeStyle=orthogonalEdgeStyle;rounded=0;orthogonalLoop=1;jettySize=auto;html=1;entryX=0.5;entryY=0;entryDx=0;entryDy=0;" edge="1" parent="1" source="4_r3y2-F7bUAAvS2S5T6-38" target="4_r3y2-F7bUAAvS2S5T6-46">
          <mxGeometry relative="1" as="geometry" />
        </mxCell>
      </root>
    </mxGraphModel>
  </diagram>
</mxfile>
